<mxfile host="app.diagrams.net" agent="Mozilla/5.0 (Macintosh; Intel Mac OS X 10_15_7) AppleWebKit/537.36 (KHTML, like Gecko) Chrome/128.0.0.0 Safari/537.36" version="24.7.7">
  <diagram name="Page-1" id="TNbmgFJ4rGOWiyjLX6vp">
    <mxGraphModel dx="1434" dy="682" grid="1" gridSize="10" guides="1" tooltips="1" connect="1" arrows="1" fold="1" page="0" pageScale="1" pageWidth="850" pageHeight="1100" math="1" shadow="0">
      <root>
        <mxCell id="0" />
        <mxCell id="1" parent="0" />
        <mxCell id="ZjjznndVC-6k5SrVuJLU-1" value="&lt;font style=&quot;font-size: 14px;&quot;&gt;IoT Sensor Node&lt;/font&gt;" style="rounded=1;whiteSpace=wrap;html=1;fillColor=#f5f5f5;strokeColor=#000000;fontColor=#333333;fontSize=14;" parent="1" vertex="1">
          <mxGeometry x="100" y="50" width="160" height="40" as="geometry" />
        </mxCell>
        <mxCell id="ZjjznndVC-6k5SrVuJLU-2" value="&lt;font style=&quot;font-size: 14px;&quot;&gt;Gateway&lt;/font&gt;" style="rounded=1;whiteSpace=wrap;html=1;fillColor=#f5f5f5;strokeColor=#000000;fontColor=#333333;fontSize=14;" parent="1" vertex="1">
          <mxGeometry x="640" y="50" width="140" height="40" as="geometry" />
        </mxCell>
        <mxCell id="ZjjznndVC-6k5SrVuJLU-3" value="&lt;font style=&quot;font-size: 14px;&quot;&gt;Compute: `R_{SN}` = `P_{SN}`(`C_{SN}`) (13)&lt;br style=&quot;font-size: 14px;&quot;&gt;Compute: X = h(`R_{SN})_{T96}` (14)&lt;br style=&quot;font-size: 14px;&quot;&gt;Compute: `\phi= XF` (15)&lt;/font&gt;" style="rounded=1;whiteSpace=wrap;html=1;fillColor=#f5f5f5;strokeColor=#000000;align=left;spacingLeft=17;fontColor=#333333;fontSize=14;spacingRight=9;" parent="1" vertex="1">
          <mxGeometry x="70" y="160" width="250" height="110" as="geometry" />
        </mxCell>
        <mxCell id="ZjjznndVC-6k5SrVuJLU-4" value="&lt;font style=&quot;font-size: 14px;&quot;&gt;Generate: `C_{SN}`&lt;br style=&quot;font-size: 14px;&quot;&gt;Select:`{F}_{EC}`&lt;/font&gt;" style="rounded=1;whiteSpace=wrap;html=1;fillColor=#f5f5f5;strokeColor=#000000;align=center;fontColor=#333333;fontSize=14;" parent="1" vertex="1">
          <mxGeometry x="610" y="140" width="170" height="60" as="geometry" />
        </mxCell>
        <mxCell id="ZjjznndVC-6k5SrVuJLU-6" value="&lt;div style=&quot;border-color: var(--border-color); text-align: left; font-size: 14px;&quot;&gt;&lt;font style=&quot;font-size: 14px;&quot;&gt;Generate: `R_{SG}^2 =KDF(K, S, I)&amp;nbsp; (17)`&lt;/font&gt;&lt;/div&gt;&lt;div style=&quot;border-color: var(--border-color); text-align: left; font-size: 14px;&quot;&gt;&lt;span style=&quot;background-color: initial; font-size: 14px;&quot;&gt;&lt;font style=&quot;font-size: 14px;&quot;&gt;Compute: `\gamma=h(XF,R_{SG}^2)&amp;nbsp; (18)`&lt;/font&gt;&lt;/span&gt;&lt;br style=&quot;font-size: 14px;&quot;&gt;&lt;/div&gt;" style="rounded=1;whiteSpace=wrap;html=1;fillColor=#f5f5f5;strokeColor=#000000;fontColor=#333333;fontSize=14;" parent="1" vertex="1">
          <mxGeometry x="520" y="240" width="300" height="70" as="geometry" />
        </mxCell>
        <mxCell id="ZjjznndVC-6k5SrVuJLU-7" value="&lt;font style=&quot;font-size: 14px;&quot;&gt;Store: F, `R_{SG}^2, gamma`&lt;/font&gt;" style="rounded=1;whiteSpace=wrap;html=1;fillColor=#f5f5f5;fontColor=#333333;strokeColor=#000000;fontSize=14;" parent="1" vertex="1">
          <mxGeometry x="90" y="390" width="140" height="50" as="geometry" />
        </mxCell>
        <mxCell id="ZjjznndVC-6k5SrVuJLU-8" value="&lt;font style=&quot;font-size: 14px;&quot;&gt;Store: `C_{SN}, phi, F,R_{SG}^2, gamma`&lt;/font&gt;" style="rounded=1;whiteSpace=wrap;html=1;fillColor=#f5f5f5;strokeColor=#000000;fontColor=#333333;fontSize=14;" parent="1" vertex="1">
          <mxGeometry x="580" y="390" width="230" height="50" as="geometry" />
        </mxCell>
        <mxCell id="ZjjznndVC-6k5SrVuJLU-9" value="&lt;font style=&quot;font-size: 14px;&quot;&gt;`C_{SN}, F`&lt;/font&gt;" style="rounded=0;whiteSpace=wrap;html=1;fillColor=#f5f5f5;strokeColor=#000000;fontColor=#333333;fontSize=14;" parent="1" vertex="1">
          <mxGeometry x="420" y="170" width="70" height="30" as="geometry" />
        </mxCell>
        <mxCell id="ZjjznndVC-6k5SrVuJLU-11" value="&lt;font style=&quot;font-size: 14px;&quot;&gt;`R_{SG}^2, gamma`&lt;/font&gt;" style="rounded=0;whiteSpace=wrap;html=1;fillColor=#f5f5f5;strokeColor=#000000;fontColor=#333333;fontSize=14;" parent="1" vertex="1">
          <mxGeometry x="350" y="350" width="90" height="32" as="geometry" />
        </mxCell>
        <mxCell id="ZjjznndVC-6k5SrVuJLU-14" value="" style="endArrow=classic;html=1;rounded=0;exitX=1;exitY=0.5;exitDx=0;exitDy=0;arcSize=18;" parent="1" edge="1">
          <mxGeometry width="50" height="50" relative="1" as="geometry">
            <mxPoint x="425" y="261.5" as="sourcePoint" />
            <mxPoint x="523.5" y="260" as="targetPoint" />
            <Array as="points">
              <mxPoint x="462.5" y="260" />
            </Array>
          </mxGeometry>
        </mxCell>
        <mxCell id="ZjjznndVC-6k5SrVuJLU-15" value="" style="endArrow=none;dashed=1;html=1;rounded=0;entryX=0.607;entryY=0;entryDx=0;entryDy=0;entryPerimeter=0;" parent="1" target="ZjjznndVC-6k5SrVuJLU-7" edge="1">
          <mxGeometry width="50" height="50" relative="1" as="geometry">
            <mxPoint x="177" y="270" as="sourcePoint" />
            <mxPoint x="110" y="390" as="targetPoint" />
          </mxGeometry>
        </mxCell>
        <mxCell id="ZjjznndVC-6k5SrVuJLU-16" value="" style="endArrow=none;dashed=1;html=1;rounded=0;exitX=0.57;exitY=0.028;exitDx=0;exitDy=0;exitPerimeter=0;" parent="1" source="ZjjznndVC-6k5SrVuJLU-8" edge="1">
          <mxGeometry width="50" height="50" relative="1" as="geometry">
            <mxPoint x="731" y="389" as="sourcePoint" />
            <mxPoint x="710" y="307" as="targetPoint" />
          </mxGeometry>
        </mxCell>
        <mxCell id="ZjjznndVC-6k5SrVuJLU-17" value="" style="endArrow=none;html=1;rounded=0;entryX=1;entryY=0.5;entryDx=0;entryDy=0;" parent="1" target="ZjjznndVC-6k5SrVuJLU-11" edge="1">
          <mxGeometry width="50" height="50" relative="1" as="geometry">
            <mxPoint x="711" y="366" as="sourcePoint" />
            <mxPoint x="450" y="240" as="targetPoint" />
          </mxGeometry>
        </mxCell>
        <mxCell id="ZjjznndVC-6k5SrVuJLU-18" value="" style="endArrow=classic;html=1;rounded=0;exitX=0;exitY=0.5;exitDx=0;exitDy=0;" parent="1" source="ZjjznndVC-6k5SrVuJLU-11" edge="1">
          <mxGeometry width="50" height="50" relative="1" as="geometry">
            <mxPoint x="400" y="290" as="sourcePoint" />
            <mxPoint x="178" y="366" as="targetPoint" />
          </mxGeometry>
        </mxCell>
        <mxCell id="ZjjznndVC-6k5SrVuJLU-19" value="" style="endArrow=none;html=1;rounded=0;entryX=1;entryY=0.5;entryDx=0;entryDy=0;" parent="1" target="ZjjznndVC-6k5SrVuJLU-9" edge="1">
          <mxGeometry width="50" height="50" relative="1" as="geometry">
            <mxPoint x="610" y="184" as="sourcePoint" />
            <mxPoint x="450" y="240" as="targetPoint" />
          </mxGeometry>
        </mxCell>
        <mxCell id="ZjjznndVC-6k5SrVuJLU-20" value="" style="endArrow=classic;html=1;rounded=0;exitX=0;exitY=0.5;exitDx=0;exitDy=0;entryX=1;entryY=0.25;entryDx=0;entryDy=0;" parent="1" source="ZjjznndVC-6k5SrVuJLU-9" edge="1" target="ZjjznndVC-6k5SrVuJLU-3">
          <mxGeometry width="50" height="50" relative="1" as="geometry">
            <mxPoint x="400" y="290" as="sourcePoint" />
            <mxPoint x="301" y="186" as="targetPoint" />
          </mxGeometry>
        </mxCell>
        <mxCell id="ZjjznndVC-6k5SrVuJLU-21" value="" style="endArrow=none;dashed=1;html=1;rounded=0;" parent="1" edge="1">
          <mxGeometry width="50" height="50" relative="1" as="geometry">
            <mxPoint x="180" y="90" as="sourcePoint" />
            <mxPoint x="180" y="160" as="targetPoint" />
          </mxGeometry>
        </mxCell>
        <mxCell id="ZjjznndVC-6k5SrVuJLU-22" value="" style="endArrow=none;dashed=1;html=1;rounded=0;entryX=0.588;entryY=1;entryDx=0;entryDy=0;entryPerimeter=0;" parent="1" target="ZjjznndVC-6k5SrVuJLU-4" edge="1">
          <mxGeometry width="50" height="50" relative="1" as="geometry">
            <mxPoint x="710" y="241" as="sourcePoint" />
            <mxPoint x="450" y="240" as="targetPoint" />
          </mxGeometry>
        </mxCell>
        <mxCell id="ZjjznndVC-6k5SrVuJLU-23" value="" style="endArrow=none;dashed=1;html=1;rounded=0;exitX=0.5;exitY=1;exitDx=0;exitDy=0;" parent="1" source="ZjjznndVC-6k5SrVuJLU-2" edge="1">
          <mxGeometry width="50" height="50" relative="1" as="geometry">
            <mxPoint x="400" y="290" as="sourcePoint" />
            <mxPoint x="710" y="150" as="targetPoint" />
          </mxGeometry>
        </mxCell>
        <mxCell id="ZjjznndVC-6k5SrVuJLU-24" value="1" style="rounded=0;whiteSpace=wrap;html=1;fillColor=#F5F5F5;strokeColor=#000000;fontSize=14;" parent="1" vertex="1">
          <mxGeometry x="790" y="140" width="20" height="20" as="geometry" />
        </mxCell>
        <mxCell id="ZjjznndVC-6k5SrVuJLU-25" value="2" style="rounded=0;whiteSpace=wrap;html=1;fillColor=#F5F5F5;strokeColor=#000000;fontSize=14;" parent="1" vertex="1">
          <mxGeometry x="40" y="160" width="20" height="20" as="geometry" />
        </mxCell>
        <mxCell id="ZjjznndVC-6k5SrVuJLU-26" value="3" style="rounded=0;whiteSpace=wrap;html=1;fillColor=#F5F5F5;strokeColor=#000000;fontSize=14;" parent="1" vertex="1">
          <mxGeometry x="830" y="240" width="20" height="20" as="geometry" />
        </mxCell>
        <mxCell id="ZjjznndVC-6k5SrVuJLU-27" value="4" style="rounded=0;whiteSpace=wrap;html=1;fillColor=#F5F5F5;strokeColor=#000000;fontSize=14;" parent="1" vertex="1">
          <mxGeometry x="60" y="390" width="20" height="20" as="geometry" />
        </mxCell>
        <mxCell id="ZjjznndVC-6k5SrVuJLU-28" value="5" style="rounded=0;whiteSpace=wrap;html=1;fillColor=#F5F5F5;strokeColor=#000000;fontSize=14;" parent="1" vertex="1">
          <mxGeometry x="550" y="390" width="20" height="20" as="geometry" />
        </mxCell>
        <UserObject label="&lt;font style=&quot;font-size: 14px;&quot;&gt;`M_{GI}^1 (12)`&lt;/font&gt;" placeholders="1" name="Variable" id="ZjjznndVC-6k5SrVuJLU-31">
          <mxCell style="text;html=1;strokeColor=none;fillColor=none;align=center;verticalAlign=middle;whiteSpace=wrap;overflow=hidden;fontSize=14;" parent="1" vertex="1">
            <mxGeometry x="410" y="140" width="80" height="30" as="geometry" />
          </mxCell>
        </UserObject>
        <UserObject label="&lt;font style=&quot;font-size: 14px;&quot;&gt;`M_{IG}^2 (16)`&lt;/font&gt;" placeholders="1" name="Variable" id="ZjjznndVC-6k5SrVuJLU-33">
          <mxCell style="text;html=1;strokeColor=none;fillColor=none;align=center;verticalAlign=middle;whiteSpace=wrap;overflow=hidden;fontSize=14;" parent="1" vertex="1">
            <mxGeometry x="370" y="215" width="80" height="30" as="geometry" />
          </mxCell>
        </UserObject>
        <UserObject label="&lt;font style=&quot;font-size: 14px;&quot;&gt;`M_{GI}^3 (19)`&lt;/font&gt;" placeholders="1" name="Variable" id="ZjjznndVC-6k5SrVuJLU-34">
          <mxCell style="text;html=1;strokeColor=none;fillColor=none;align=center;verticalAlign=middle;whiteSpace=wrap;overflow=hidden;fontSize=14;" parent="1" vertex="1">
            <mxGeometry x="352.5" y="320" width="80" height="30" as="geometry" />
          </mxCell>
        </UserObject>
        <mxCell id="oK1kQUxt6v8wb85KCXEv-8" value="" style="endArrow=none;html=1;rounded=0;exitX=0.996;exitY=0.882;exitDx=0;exitDy=0;exitPerimeter=0;" parent="1" target="ZjjznndVC-6k5SrVuJLU-10" edge="1" source="ZjjznndVC-6k5SrVuJLU-3">
          <mxGeometry width="50" height="50" relative="1" as="geometry">
            <mxPoint x="298" y="258" as="sourcePoint" />
            <mxPoint x="395" y="255" as="targetPoint" />
          </mxGeometry>
        </mxCell>
        <mxCell id="ZjjznndVC-6k5SrVuJLU-10" value="&lt;font style=&quot;font-size: 14px;&quot;&gt;`\phi`&lt;/font&gt;" style="rounded=0;whiteSpace=wrap;html=1;fillColor=#f5f5f5;strokeColor=#000000;fontColor=#333333;fontSize=14;" parent="1" vertex="1">
          <mxGeometry x="402.5" y="245" width="30" height="25" as="geometry" />
        </mxCell>
        <mxCell id="oK1kQUxt6v8wb85KCXEv-10" value="" style="endArrow=classic;startArrow=classic;html=1;rounded=0;" parent="1" edge="1">
          <mxGeometry width="50" height="50" relative="1" as="geometry">
            <mxPoint x="125" y="520" as="sourcePoint" />
            <mxPoint x="725" y="520" as="targetPoint" />
          </mxGeometry>
        </mxCell>
        <mxCell id="oK1kQUxt6v8wb85KCXEv-11" value="&lt;font style=&quot;font-size: 14px;&quot;&gt;Secure Channel&lt;/font&gt;" style="text;html=1;align=center;verticalAlign=middle;resizable=0;points=[];autosize=1;strokeColor=none;fillColor=none;fontSize=14;" parent="1" vertex="1">
          <mxGeometry x="350" y="480" width="120" height="30" as="geometry" />
        </mxCell>
      </root>
    </mxGraphModel>
  </diagram>
</mxfile>
